<svg xmlns="http://www.w3.org/2000/svg" viewBox="0 0 45.1 28" fill="#1C1917"><path d="M-0.000329832 0.0216396C7.68046 0.0216396 13.907 6.24814 13.907 13.9289C13.907 21.6097 7.68046 27.8363 -0.000329832 27.8363V22.2734C4.60814 22.2734 8.34404 18.5374 8.34404 13.9289C8.34404 9.32046 4.60814 5.58455 -0.000329832 5.58455V0.0216396ZM20.0262 0.0216396C24.6347 0.0216396 28.3705 3.75754 28.3705 8.36601V19.4919C28.3705 21.0278 29.6159 22.2734 31.152 22.2734H36.7149V27.8363H31.152C26.5435 27.8363 22.8076 24.1002 22.8076 19.4919V8.36601C22.8076 6.82985 21.5623 5.58455 20.0262 5.58455H14.4632V0.0216396H20.0262ZM45.0593 27.8363H39.4964V0.0216396H45.0593V27.8363Z"/></svg>
